<svg width="261" height="226" viewBox="0 0 261 226" fill="none" xmlns="http://www.w3.org/2000/svg">
<path d="M131.871 201.576H87.6743V201.724H131.871V201.576Z" fill="#EBEBEB"/>
<path d="M246.145 68.3595C246.311 64.513 243.979 61.5437 240.21 60.9214C239.053 59.2204 237.053 58.1654 234.507 58.1654C230.531 58.1654 226.424 60.7317 224.21 64.2996C221.083 64.756 218.275 66.4688 216.448 69.0411C216.044 68.9107 215.623 68.8455 215.201 68.8514C212.56 69.0055 210.293 70.7835 209.516 73.3083C209.338 73.8951 209.296 74.5174 209.385 75.1219H248.068C248.448 74.5648 248.733 73.9544 248.923 73.3083C249.599 70.831 248.394 68.7981 246.145 68.3595Z" fill="#F5F5F5"/>
<path d="M46.5345 21.6861C46.8372 18.5093 44.5582 15.6585 41.3891 15.2496C40.2555 13.679 38.3979 12.7841 36.4573 12.8789C33.0151 12.8789 29.4661 15.1014 27.5551 18.213C24.8429 18.6219 22.4156 20.1214 20.8428 22.3617C20.4927 22.2491 20.1307 22.1958 19.7627 22.1958C17.4778 22.3203 15.5134 23.8494 14.825 26.0304C14.6707 26.5401 14.6351 27.0735 14.7122 27.5951H48.1785C48.5049 27.115 48.7601 26.5875 48.9203 26.0304C49.5435 23.8257 48.4989 22.0417 46.5345 21.6861Z" fill="#F5F5F5"/>
<path d="M167.034 119.022C153.521 119.039 143.052 126.786 134.63 142.77C129.847 138.687 123.93 135.96 116.642 135.966C97.7042 135.99 85.5141 149.924 76.6001 179.273H208.133C208.133 179.273 199.836 118.974 167.034 119.016V119.022Z" fill="#BEBEBE"/>
<path d="M166.785 152.952L165.313 159.81H168.429L166.785 152.952Z" fill="#F0F0F0"/>
<path d="M165.23 125.233L163.752 132.084H166.874L165.23 125.233Z" fill="#F0F0F0"/>
<path d="M154.536 137.341L153.058 144.199H156.18L154.536 137.341Z" fill="#F0F0F0"/>
<path d="M109.206 140.868L107.728 147.725H110.85L109.206 140.868Z" fill="#F0F0F0"/>
<path d="M117.437 153.225L115.959 160.082H119.081L117.437 153.225Z" fill="#F0F0F0"/>
<path d="M147.082 163.348L145.61 170.199H148.726L147.082 163.348Z" fill="#F0F0F0"/>
<path d="M176.821 135.237L175.349 142.089H178.465L176.821 135.237Z" fill="#F0F0F0"/>
<path d="M211 109.076L210.917 158.962C210.917 158.962 213.421 159.662 215.427 158.962L213.172 107.956L211 109.076Z" fill="#0D399B"/>
<path d="M215.433 106.694C215.433 105.319 214.424 104.199 213.178 104.199H207.955L208.139 109.183C208.139 109.183 210.655 109.082 212.406 109.023C212.649 109.124 212.905 109.183 213.178 109.183C213.486 109.183 213.783 109.112 214.05 108.988C214.863 108.608 215.433 107.725 215.433 106.688V106.694Z" fill="#1E56D4"/>
<path d="M230.715 123.176L216.608 107.891L210.359 107.008C210.371 106.901 210.388 106.801 210.388 106.694C210.388 105.42 209.516 104.377 208.394 104.228L211.101 78.9151L204.922 98.7639L207.213 104.418C206.43 104.809 205.878 105.674 205.878 106.688C205.878 107.02 205.937 107.34 206.044 107.63L182.631 118.174L202.905 113.462L206.673 108.579C207.065 108.952 207.569 109.183 208.133 109.183C208.917 109.183 209.611 108.739 210.014 108.063L230.715 123.17V123.176Z" fill="#022063"/>
<path opacity="0.2" d="M230.584 123.261L216.477 107.976L210.227 107.093C210.239 106.986 210.257 106.886 210.257 106.779C210.257 105.505 209.385 104.461 208.263 104.313L210.969 79L204.791 98.8488L207.082 104.503C206.298 104.894 205.747 105.759 205.747 106.773C205.747 107.105 205.806 107.425 205.913 107.715L182.5 118.259L202.773 113.547L206.542 108.664C206.933 109.037 207.438 109.268 208.002 109.268C208.785 109.268 209.48 108.824 209.883 108.148L230.584 123.255V123.261Z" fill="#707070"/>
<path opacity="0.2" d="M209.101 106.617C209.148 107.215 208.756 107.737 208.222 107.778C207.688 107.82 207.219 107.37 207.172 106.771C207.124 106.172 207.516 105.651 208.05 105.609C208.584 105.568 209.053 106.018 209.101 106.617Z" fill="white"/>
<path d="M197.83 98.3371C195.575 99.1135 192.952 98.7461 190.999 97.377C189.094 96.0435 187.872 93.892 185.925 92.6237C183.8 91.2428 180.916 91.1183 178.691 92.3214C177.124 93.169 175.943 94.5558 174.619 95.753C173.296 96.9443 171.664 97.9993 169.883 97.8985C168.293 97.8096 166.803 96.7013 166.263 95.2019" stroke="#F5F5F5" stroke-linecap="round" stroke-linejoin="round"/>
<path d="M197.83 102.604C195.575 103.381 192.952 103.013 190.999 101.644C189.094 100.311 187.872 98.1593 185.925 96.891C183.8 95.51 180.916 95.3856 178.691 96.5887C177.124 97.4362 175.943 98.8231 174.619 100.02C173.296 101.218 171.664 102.267 169.883 102.166C168.293 102.077 166.803 100.969 166.263 99.4691" stroke="#F5F5F5" stroke-linecap="round" stroke-linejoin="round"/>
<path d="M197.83 106.866C195.575 107.642 192.952 107.275 190.999 105.906C189.094 104.572 187.872 102.421 185.925 101.152C183.8 99.7714 180.916 99.647 178.691 100.85C177.124 101.698 175.943 103.084 174.619 104.282C173.296 105.473 171.664 106.528 169.883 106.427C168.293 106.338 166.803 105.23 166.263 103.731" stroke="#F5F5F5" stroke-linecap="round" stroke-linejoin="round"/>
<path d="M162.655 185.55H261C261 185.55 251.546 153.693 214.187 153.717C189.812 153.735 174.127 163.976 162.649 185.55H162.655Z" fill="#EBEBEB"/>
<path d="M203.623 147.043L201.635 157.279H205.843L203.623 147.043Z" fill="#E0E0E0"/>
<path d="M214.644 155.845L212.65 166.08H216.858L214.644 155.845Z" fill="#E0E0E0"/>
<path d="M192.828 166.608L190.839 176.849H195.047L192.828 166.608Z" fill="#E0E0E0"/>
<path d="M239.795 167.87L237.801 178.112H242.009L239.795 167.87Z" fill="#E0E0E0"/>
<path d="M227.012 147.144L225.018 157.38H229.225L227.012 147.144Z" fill="#E0E0E0"/>
<path d="M59.9059 80.2842C59.9059 77.9372 58.1848 76.0406 56.0661 76.0406H47.1758L47.4844 84.5337H56.3866V84.5159C58.3569 84.3381 59.9118 82.5126 59.9118 80.2901L59.9059 80.2842Z" fill="#1E56D4"/>
<path opacity="0.1" d="M59.9059 80.2842C59.9059 77.9372 58.1848 76.0406 56.0661 76.0406H47.1758L47.4844 84.5337H56.3866V84.5159C58.3569 84.3381 59.9118 82.5126 59.9118 80.2901L59.9059 80.2842Z" fill="#1E56D4"/>
<path opacity="0.1" d="M59.9057 169.287C56.4873 170.478 52.2261 169.287 52.2261 169.287L52.2439 158.844V155.708L52.2557 153.249V152.235L52.3626 84.3382L56.0659 82.4297L59.152 152.235L59.1994 153.249L59.3063 155.708L59.4428 158.844L59.9057 169.287Z" fill="#0D399B"/>
<path d="M52.3626 84.3381L52.2261 169.281C52.2261 169.281 56.4873 170.472 59.9057 169.281L56.0659 82.4238L52.3626 84.3322V84.3381Z" fill="#0D399B"/>
<path d="M59.2648 89.1506L50.594 82.7675C51.051 82.0681 51.324 81.2147 51.324 80.2842C51.324 78.8973 50.7187 77.6646 49.7869 76.8941L74.1967 40.9007L49.0095 65.8051L47.9293 76.0702C47.781 76.0525 47.6326 76.0406 47.4842 76.0406C45.4545 76.0406 43.7987 77.7772 43.6563 79.9819L0 76.5088L34.1131 86.0984L43.9115 81.8311C44.4753 83.4076 45.8581 84.5218 47.4842 84.5218C48.1133 84.5218 48.7008 84.35 49.229 84.0536L68.0483 123.431L59.2707 89.1388L59.2648 89.1506Z" fill="#022063"/>
<path opacity="0.3" d="M59.1521 152.235H52.2559V153.249H59.1996L59.1521 152.235Z" fill="#1E56D4"/>
<path opacity="0.3" d="M59.443 158.844H52.2441L52.2501 155.708H59.3065L59.443 158.844Z" fill="#1E56D4"/>
<path d="M35.6919 185.55H112.108C112.108 185.55 104.767 157.889 75.7339 157.907C56.796 157.919 44.6059 166.815 35.6919 185.55Z" fill="#EBEBEB"/>
<path d="M65.4725 152.692L63.4844 162.927H67.6921L65.4725 152.692Z" fill="#E0E0E0"/>
<path d="M76.4936 161.493L74.4995 171.728H78.7073L76.4936 161.493Z" fill="#E0E0E0"/>
<path d="M88.8618 152.786L86.8677 163.028H91.0754L88.8618 152.786Z" fill="#E0E0E0"/>
<path opacity="0.2" d="M49.0809 80.1301C49.164 81.1613 48.4874 82.0622 47.5675 82.1333C46.6476 82.2045 45.8405 81.428 45.7574 80.3909C45.6743 79.3537 46.3509 78.4587 47.2708 78.3876C48.1907 78.3165 48.9978 79.0929 49.0809 80.1301Z" fill="white"/>
<path d="M115.829 70.3153C112.239 71.554 108.067 70.9673 104.951 68.7922C101.918 66.6704 99.9775 63.2447 96.8796 61.2237C93.5027 59.0189 88.9092 58.8292 85.3602 60.7436C82.8675 62.089 80.9862 64.3056 78.8853 66.2022C76.7844 68.0987 74.179 69.776 71.3481 69.616C68.814 69.4737 66.4401 67.7076 65.5854 65.3191" stroke="#F5F5F5" stroke-linecap="round" stroke-linejoin="round"/>
<path d="M115.829 77.1015C112.239 78.3402 108.067 77.7534 104.951 75.5783C101.918 73.4565 99.9775 70.0309 96.8796 68.0098C93.5027 65.8051 88.9092 65.6154 85.3602 67.5298C82.8675 68.8751 80.9862 71.0918 78.8853 72.9883C76.7844 74.8849 74.179 76.5622 71.3481 76.4021C68.814 76.2599 66.4401 74.4937 65.5854 72.1052" stroke="#F5F5F5" stroke-linecap="round" stroke-linejoin="round"/>
<path d="M115.829 83.8877C112.239 85.1264 108.067 84.5396 104.951 82.3645C101.918 80.2427 99.9775 76.817 96.8796 74.796C93.5027 72.5912 88.9092 72.4016 85.3602 74.3159C82.8675 75.6613 80.9862 77.8779 78.8853 79.7745C76.7844 81.6711 74.179 83.3483 71.3481 83.1883C68.814 83.0461 66.4401 81.2799 65.5854 78.8914" stroke="#F5F5F5" stroke-linecap="round" stroke-linejoin="round"/>
<path d="M139.046 70.9258L138.833 202.358C138.833 202.358 145.373 204.201 150.619 202.358L144.726 67.9683L139.046 70.9198V70.9258Z" fill="#1047C2"/>
<path opacity="0.2" d="M150.619 202.364C145.373 204.201 138.838 202.364 138.838 202.364L138.85 193.8L138.862 187.749V182.895L138.874 180.749L139.046 70.9258L144.726 67.9743L149.669 180.749L149.764 182.895L149.978 187.772L150.245 193.8L150.619 202.364Z" fill="black"/>
<path d="M144.726 71.1925C147.981 71.1925 150.619 68.2763 150.619 64.6789C150.619 61.0816 147.981 58.1654 144.726 58.1654C141.471 58.1654 138.833 61.0816 138.833 64.6789C138.833 68.2763 141.471 71.1925 144.726 71.1925Z" fill="#2160EB"/>
<path d="M144.726 71.1925C144.969 71.0621 131.556 71.1925 131.556 71.1925L131.082 58.1654H144.726V71.1925Z" fill="#2160EB"/>
<path opacity="0.1" d="M144.726 58.1654H131.082L131.556 71.1925C131.556 71.1925 141.456 71.0976 144.085 71.151C144.292 71.1747 144.506 71.1925 144.726 71.1925C147.978 71.1925 150.619 68.2765 150.619 64.6789C150.619 61.0814 147.978 58.1654 144.726 58.1654Z" fill="black"/>
<path d="M131.556 71.1925C134.811 71.1925 137.45 68.2763 137.45 64.6789C137.45 61.0816 134.811 58.1654 131.556 58.1654C128.302 58.1654 125.663 61.0816 125.663 64.6789C125.663 68.2763 128.302 71.1925 131.556 71.1925Z" fill="#022063"/>
<path d="M131.788 64.6789L148.281 49.5834L202.578 46.5193L131.788 64.6789Z" fill="#022063"/>
<path d="M131.788 64.6789L136.607 86.5013L112.061 134.959L131.788 64.6789Z" fill="#022063"/>
<path d="M131.556 64.6789L110.173 58.1002L80.0781 12.873L131.556 64.6789Z" fill="#022063"/>
<path opacity="0.3" d="M150.245 193.8H138.85L138.862 187.749C141.651 187.784 146.458 187.826 149.978 187.772L150.245 193.8Z" fill="white"/>
<path opacity="0.3" d="M149.764 182.894H138.868L138.874 180.749H149.669L149.764 182.894Z" fill="white"/>
<path opacity="0.2" d="M134.251 64.3233C134.388 66.0065 133.284 67.4645 131.788 67.5831C130.293 67.7016 128.975 66.4333 128.844 64.7501C128.708 63.0669 129.812 61.6089 131.307 61.4903C132.803 61.3718 134.12 62.6401 134.251 64.3233Z" fill="white"/>
<path d="M124.772 173C148.926 173 158.559 190.797 158.559 190.797C158.559 190.797 204.291 175.142 222 207H77C77 207 88.8706 173 124.772 173Z" fill="#E0E0E0"/>
</svg>
